HIERARCHY
ROOT pelvis
{
  OFFSET 0 100 0
  CHANNELS 6 Xposition Yposition Zposition Zrotation Xrotation Yrotation
  JOINT pelvis_right_femur
  {
    OFFSET -10.78128 -3.44521 -0.5502486
    CHANNELS 3 Zrotation Xrotation Yrotation
    JOINT right_femur_tibia
    {
      OFFSET -0.8047443 -44.0398 -0.1307829
      CHANNELS 3 Zrotation Xrotation Yrotation
      JOINT right_tibia_foot
      {
        OFFSET 3.006224 -47.83518 -5
        CHANNELS 3 Zrotation Xrotation Yrotation
        End Site
        {
          OFFSET 0 -5 15
        }
      }
    }
  }
  JOINT pelvis_left_femur
  {
    OFFSET 10.78128 -3.44521 -0.5502486
    CHANNELS 3 Zrotation Xrotation Yrotation
    JOINT left_femur_tibia
    {
      OFFSET 0.8047443 -44.0398 -0.1307829
      CHANNELS 3 Zrotation Xrotation Yrotation
      JOINT left_tibia_foot
      {
        OFFSET -4.370144 -48.10324 -4.275266
        CHANNELS 3 Zrotation Xrotation Yrotation
        End Site
        {
          OFFSET 0 -5 15
        }
      }
    }
  }
  JOINT pelvis_spine1
  {
    OFFSET 0 6.468898 -3.129235
    CHANNELS 3 Zrotation Xrotation Yrotation
    JOINT spine1
    {
      OFFSET 0 23.15396 4.99043
      CHANNELS 3 Zrotation Xrotation Yrotation
      JOINT spine2
      {
        OFFSET 0 20.79997 -5.064912
        CHANNELS 3 Zrotation Xrotation Yrotation
        JOINT neck
        {
          OFFSET 0 14.38658 9.616178
          CHANNELS 3 Zrotation Xrotation Yrotation
          End Site
          {
            OFFSET 0 20 0
          }
        }
      }
      JOINT right_manubrium
      {
        OFFSET -5.722621 16.35077 3.967754
        CHANNELS 3 Zrotation Xrotation Yrotation
        JOINT right_clavicle
        {
          OFFSET -13.16364 1.694482 -4.693211
          CHANNELS 3 Zrotation Xrotation Yrotation
          JOINT right_humerus
          {
            OFFSET -28.5034 -0.3100689 -2.792744
            CHANNELS 3 Zrotation Xrotation Yrotation
            JOINT right_radius
            {
              OFFSET -25.15693 0.02248979 -1.271978
              CHANNELS 3 Zrotation Xrotation Yrotation
              End Site
              {
                OFFSET -15 0 0
              }
            }
          }
        }
      }
      JOINT left_manubrium
      {
        OFFSET 5.722621 16.35077 3.967754
        CHANNELS 3 Zrotation Xrotation Yrotation
        JOINT left_clavicle
        {
          OFFSET 13.16364 1.694482 -4.693211
          CHANNELS 3 Zrotation Xrotation Yrotation
          JOINT left_humerus
          {
            OFFSET 29.39168 -1.063119 -2.237045
            CHANNELS 3 Zrotation Xrotation Yrotation
            JOINT left_radius
            {
              OFFSET 24.59957 -0.9528479 0.9047498
              CHANNELS 3 Zrotation Xrotation Yrotation
              End Site
              {
                OFFSET 15 -0 -0
              }
            }
          }
        }
      }
    }
  }
}
MOTION
Frames: 19
Frame Time: 0.0416666666667
0 103.5113 0 2.540236 0.6168272 0.1202866 3.254549 -15.94588 10.54895 -0 37.45241 -0 -3.134468 -18.99616 -1.877731 -9.148764 9.355269 -23.54797 -0 4.853559 -0 18.87205 -10.97056 29.53885 -3.056096 -2.176454 6.167283 1.468873 10.4712 -6.56379 1.614405 21.9981 6.104638 3.54273 -25.05903 8.924633 4.217693 -20.95333 10.23065 86.94002 37.45081 -17.33943 -0 0 16.1166 -8.627537 6.536837 3.904678 6.10643 -20.62514 -2.154151 -92.88606 22.81822 22.41067 0 0 -14.43949 14.63237 13.77 -1.770109
0.3686464 104.1008 1.477834 1.903018 1.659732 0.2119903 4.459862 -18.36894 11.15416 -0 37.07698 -0 -3.50563 -17.64516 -1.788462 -8.892523 9.065835 -23.34254 -0 5.306323 -0 19.13993 -11.64712 29.82217 -2.715406 -1.903197 6.087214 1.607707 10.42837 -6.684089 1.547482 21.81311 6.250088 3.591078 -25.36682 8.939687 3.99989 -20.67582 10.36154 87.28694 37.1411 -17.74323 -0 0 15.54221 -9.016805 6.903753 4.06567 6.066043 -20.73717 -2.038656 -92.57258 22.52756 22.03669 0 0 -14.98229 14.43283 13.45721 -1.773717
0.6766532 104.3759 3.409049 0.9014252 1.923191 0.3128876 4.973749 -22.29974 8.755642 -0 31.57112 -0 -5.153623 -13.72299 -1.956596 -7.733395 10.49187 -21.83518 -0 5.441674 -0 13.56694 -16.55751 27.13107 -2.666591 -1.90716 5.977753 1.695819 10.39948 -6.777117 1.551829 21.73399 6.294165 3.584376 -25.50041 9.001146 4.044159 -20.53101 10.41814 87.32456 36.99072 -17.91624 -0 0 15.40793 -9.028637 7.046359 4.085881 6.116813 -20.76005 -1.926036 -92.49442 22.44331 21.78953 0 0 -15.04727 14.39944 13.50514 -1.860448
0.9581389 104.6221 5.503648 0.203633 2.572648 0.383557 5.867096 -24.88389 8.915499 -0 30.07273 -0 -5.544182 -12.02288 -2.257889 -7.151633 10.87833 -21.42914 -0 5.893245 -0 11.3721 -18.54972 26.26436 -2.613711 -1.929996 5.879895 1.776313 10.36854 -6.864895 1.565303 21.65917 6.320806 3.571658 -25.60255 9.05421 4.136878 -20.38268 10.47118 87.33069 36.8604 -18.10364 -0 0 15.29169 -8.976407 7.200524 4.087704 6.163959 -20.78014 -1.82815 -92.49036 22.47221 21.63446 0 0 -15.1103 14.28583 13.6166 -1.781604
1.222315 104.7669 7.908225 -0.420705 3.254716 0.5024044 6.743154 -28.16845 8.593333 -0 27.44643 -0 -6.123123 -9.591078 -2.184148 -6.632673 11.30992 -20.59078 -0 6.525564 -0 9.77197 -20.34307 25.02354 -2.584385 -1.978415 5.751083 1.874855 10.32908 -6.973447 1.579966 21.57193 6.357576 3.557525 -25.72506 9.125905 4.249818 -20.22418 10.5312 87.3124 36.7048 -18.288 -0 0 15.19937 -8.914979 7.359976 4.089668 6.238895 -20.80045 -1.693687 -92.46975 22.451 21.41285 0 0 -15.12901 14.21292 13.75298 -1.797124
1.471972 104.8241 10.64234 -0.9135254 3.831898 0.6927901 7.485997 -30.99894 8.227739 -0 24.93038 -0 -6.70443 -7.369407 -1.925269 -6.222668 11.71887 -19.81485 -0 7.358516 -0 8.627219 -21.58959 23.83612 -2.534712 -2.012228 5.6103 1.988741 10.28101 -7.09673 1.586142 21.46349 6.411231 3.550874 -25.87021 9.197392 4.353073 -20.04434 10.60366 87.30493 36.51821 -18.49592 -0 0 15.07335 -8.885469 7.550809 4.109988 6.320273 -20.83327 -1.54126 -92.42421 22.39229 21.1556 0 0 -15.18105 14.12468 13.86759 -1.821372
1.708441 104.8283 13.79566 -1.411004 4.385347 1.00064 8.219728 -33.68234 7.64324 -0 22.16316 -0 -7.511734 -4.995182 -1.406568 -5.802369 12.1792 -18.94161 -0 8.69625 -0 7.3992 -22.52507 22.32018 -2.448917 -2.006864 5.449354 2.128791 10.21903 -7.244226 1.572039 21.31744 6.503014 3.563759 -26.06401 9.267507 4.41336 -19.82911 10.69661 87.33473 36.2767 -18.73986 -0 0 14.87083 -8.943791 7.786931 4.173107 6.411774 -20.89134 -1.359307 -92.30109 22.22682 20.80084 0 0 -15.31277 14.03751 13.90505 -1.914509
1.937063 104.8479 17.43138 -1.928715 4.849212 1.450998 8.892741 -35.65855 6.86331 -0 19.61398 -0 -8.523336 -2.85727 -0.7061623 -5.349235 12.62918 -18.03643 -0 10.73093 -0 5.678859 -22.98257 20.31196 -2.321752 -1.955141 5.28176 2.286158 10.14646 -7.407173 1.536781 21.1387 6.628044 3.599196 -26.28994 9.324193 4.42701 -19.58318 10.80512 87.40675 35.99345 -19.0207 -0 0 14.58212 -9.08907 8.060723 4.279995 6.503984 -20.97671 -1.169073 -92.11012 21.98104 20.37863 0 0 -15.54961 13.92779 13.85424 -2.022013
2.166943 104.9925 21.61894 -2.511275 5.224679 2.052654 9.51836 -36.46527 5.9571 -0 17.59794 -0 -9.646747 -1.29835 0.0212666 -4.806662 12.99819 -17.09057 -0 13.88547 -0 2.890575 -22.73117 17.47955 -2.156594 -1.857227 5.123459 2.447389 10.0724 -7.572271 1.48435 20.94154 6.771366 3.653744 -26.52184 9.355828 4.396969 -19.31819 10.92061 87.52168 35.68871 -19.33175 -0 0 14.21131 -9.305803 8.353728 4.423608 6.582815 -21.08458 -1.000119 -91.87095 21.69472 19.93086 0 0 -15.89528 13.7777 13.71615 -2.08777
2.412384 105.3782 26.41187 -3.097456 5.476412 2.749057 9.970389 -35.50498 5.038814 -0 16.40707 -0 -10.5561 -0.7489298 0.4765238 -4.197528 13.12013 -16.03687 -0 18.53827 -0 -1.023256 -21.26206 13.7828 -1.966534 -1.725391 5.001803 2.587295 10.0158 -7.712628 1.428879 20.76064 6.895979 3.710386 -26.71264 9.350544 4.344215 -19.06119 11.02732 87.66746 35.40628 -19.64982 -0 0 13.79536 -9.540448 8.631562 4.576528 6.620066 -21.19399 -0.8989341 -91.64143 21.45779 19.55478 0 0 -16.30307 13.56673 13.52647 -2.020512
2.683686 106.0806 31.8552 -3.548974 5.499217 3.387778 10.08074 -32.65336 4.285024 -0 15.93365 -0 -10.88014 -1.129812 0.3495771 -3.586498 12.80945 -14.68472 -0 25.13659 -0 -5.182069 -18.06572 9.766172 -1.764165 -1.568407 4.943424 2.680819 9.99587 -7.799171 1.384318 20.63428 6.96609 3.749589 -26.8231 9.301764 4.283479 -18.84211 11.11088 87.83305 35.19112 -19.94087 -0 0 13.37883 -9.748443 8.860864 4.711883 6.584778 -21.27849 -0.9044414 -91.47382 21.34752 19.34266 0 0 -16.70611 13.29061 13.3196 -1.760619
2.968993 107.1235 37.93576 -3.687169 4.981 3.730786 9.787088 -28.44409 3.954913 -0 15.86257 -0 -10.52863 -1.714655 -0.4555456 -3.059204 11.83616 -12.90825 -0 34.05833 -0 -7.847302 -13.27526 6.722099 -1.555273 -1.38166 4.959917 2.715606 10.01868 -7.817053 1.352225 20.58029 6.974382 3.765332 -26.8418 9.209001 4.203809 -18.67873 11.16627 88.01518 35.06012 -20.17111 -0 0 12.9846 -9.942406 9.028348 4.830878 6.464249 -21.32515 -1.023799 -91.36892 21.37026 19.31341 0 0 -17.07655 12.96109 13.09165 -1.320068
3.230334 108.5667 44.42567 -3.431984 3.63441 3.598671 9.262152 -23.44773 4.237281 -0 16.2697 -0 -9.977307 -2.146752 -1.640408 -2.686221 9.610086 -11.0918 -0 45.01399 -0 -8.121485 -8.108531 5.802335 -1.341668 -1.15257 5.044385 2.695079 10.07524 -7.77117 1.320603 20.58924 6.943613 3.766682 -26.77923 9.074146 4.076199 -18.57328 11.1995 88.20896 34.99227 -20.31017 -0 0 12.6128 -10.19257 9.146555 4.969733 6.270327 -21.33979 -1.230736 -91.27497 21.46005 19.4062 0 0 -17.4371 12.59173 12.8012 -0.7643099
3.441744 110.4434 50.83183 -2.787532 1.662978 3.046273 8.55078 -17.92101 4.576649 -0 16.80155 -0 -9.889982 -3.094404 -2.450035 -2.577003 5.300528 -9.86839 -0 55.75777 -0 -7.041576 -4.380399 6.841237 -1.129104 -0.8759696 5.184889 2.627322 10.15346 -7.672577 1.27602 20.6439 6.89881 3.761955 -26.6417 8.897732 3.881557 -18.52694 11.22115 88.38973 34.95208 -20.31888 -0 0 12.27526 -10.57507 9.239816 5.175998 6.022249 -21.33038 -1.488271 -91.1398 21.54167 19.55449 0 0 -17.80342 12.18416 12.41241 -0.1513868
3.622159 112.5084 56.74527 -1.810317 -0.4344361 2.323023 7.531042 -12.16203 4.202578 -0 16.01595 -0 -9.980762 -4.876457 -2.40744 -2.684948 -0.963713 -9.17284 -0 62.85085 -0 -6.354345 -3.088035 8.585716 -0.9316192 -0.5640096 5.370778 2.519011 10.24409 -7.530819 1.211982 20.73079 6.851804 3.750031 -26.42225 8.680981 3.625476 -18.54792 11.24172 88.50728 34.90476 -20.14593 -0 0 12.01628 -11.13629 9.333342 5.488505 5.738569 -21.29678 -1.759488 -90.94278 21.56759 19.72642 0 0 -18.14917 11.72827 11.92461 0.4904131
3.798242 114.3349 62.17564 -0.6986989 -2.317833 1.650429 6.34022 -6.440632 3.523531 -0 13.44703 -0 -9.196167 -6.719586 -2.047077 -2.615836 -7.787984 -8.271935 -0 64.4344 -0 -6.384098 -3.474472 10.30977 -0.7703765 -0.2495618 5.592876 2.374363 10.33758 -7.35235 1.132259 20.84144 6.800743 3.722965 -26.10759 8.431242 3.343821 -18.64902 11.26753 88.49281 34.83079 -19.74237 -0 0 11.91103 -11.86695 9.446224 5.920335 5.439806 -21.23038 -2.00959 -90.71072 21.54186 19.93777 0 0 -18.40946 11.20641 11.38746 1.169906
3.959067 115.6323 67.3448 0.2086575 -3.897241 1.08077 5.356486 -0.8836782 3.021862 -0 10.35615 -0 -7.846865 -8.25972 -1.868156 -1.967644 -13.82902 -6.911732 -0 60.87962 -0 -6.263342 -4.306175 12.20417 -0.6646604 0.0322283 5.851852 2.189841 10.41935 -7.1334 1.043957 20.97331 6.740949 3.676519 -25.6836 8.158156 3.07945 -18.8499 11.29694 88.27562 34.74092 -19.05912 -0 0 12.04583 -12.72819 9.58715 6.467465 5.144685 -21.11867 -2.21115 -90.50083 21.51434 20.24908 0 0 -18.51922 10.59577 10.86826 1.930712
4.097135 116.3113 72.40436 0.6166537 -5.062549 0.5486516 4.902296 4.125798 2.461403 -0 7.984992 -0 -7.105921 -9.949607 -1.681801 -0.7020397 -18.62722 -5.439911 -0 53.45727 -0 -5.595336 -5.011061 14.21042 -0.6290633 0.2566813 6.157593 1.956284 10.466 -6.862514 0.9477434 21.12268 6.679146 3.617317 -25.14116 7.869841 2.859219 -19.17998 11.32368 87.78627 34.6644 -18.03185 -0 0 12.50709 -13.69893 9.761396 7.133677 4.873426 -20.95302 -2.335189 -90.36496 21.53583 20.73283 0 0 -18.43944 9.876842 10.41371 2.816019
4.247919 116.4239 77.4609 0.4960522 -5.515416 -0.01088167 4.963513 8.124921 1.910672 -0 6.804689 -0 -6.990112 -12.04239 -1.360319 0.9241556 -22.32132 -4.023545 -0 43.67457 -0 -4.620486 -5.370679 15.8468 -0.6721159 0.4049331 6.508765 1.675616 10.44899 -6.540966 0.838759 21.27213 6.636696 3.561737 -24.49581 7.578807 2.697922 -19.65604 11.34349 86.97972 34.61929 -16.62703 -0 0 13.34472 -14.76558 9.976822 7.922925 4.656595 -20.73987 -2.346 -90.32858 21.62359 21.41729 0 0 -18.17171 9.053137 10.04838 3.823785
